<?xml version="1.0" standalone="no"?>
<!DOCTYPE svg PUBLIC "-//W3C//DTD SVG 20010904//EN"
 "http://www.w3.org/TR/2001/REC-SVG-20010904/DTD/svg10.dtd">
<svg version="1.0" xmlns="http://www.w3.org/2000/svg"
 width="797.000000pt" height="796.000000pt" viewBox="0 0 797.000000 796.000000"
 preserveAspectRatio="xMidYMid meet">

<g transform="translate(0.000000,796.000000) scale(0.100000,-0.100000)"
fill="#000000" stroke="none">
<path d="M4610 5930 c-561 -18 -1150 -78 -1655 -171 -509 -93 -1115 -266
-1464 -416 l-44 -19 45 -50 c24 -28 54 -67 67 -87 12 -20 26 -37 30 -37 4 0
63 25 132 56 152 68 316 135 429 176 279 98 730 222 990 272 74 14 183 34 241
45 256 48 673 104 1019 136 219 20 540 36 920 46 239 7 439 15 443 19 10 9
-147 19 -488 30 -293 10 -317 10 -665 0z"/>
<path d="M965 5296 c-57 -19 -130 -63 -127 -76 1 -6 -2 -9 -7 -6 -15 10 -86
-70 -122 -138 -29 -53 -34 -72 -37 -154 -5 -109 7 -164 55 -244 42 -70 110
-133 183 -166 45 -21 70 -26 140 -26 78 0 90 3 151 36 72 38 77 41 147 109 52
51 64 67 90 119 9 19 21 38 27 42 5 4 6 10 2 14 -4 4 -1 14 6 22 7 9 12 47 12
101 0 73 -4 95 -27 144 -37 79 -117 160 -197 200 -57 28 -76 32 -160 34 -60 2
-111 -2 -136 -11z m89 -139 c19 -12 42 -35 51 -50 19 -31 37 -137 23 -137 -4
0 -8 -16 -8 -35 0 -19 -4 -35 -9 -35 -6 0 -22 -11 -37 -25 -15 -14 -36 -25
-46 -25 -11 0 -17 -4 -14 -8 9 -15 -98 -6 -131 12 -18 9 -41 29 -50 44 -10 15
-23 31 -31 35 -7 5 -10 17 -7 27 3 10 1 21 -5 25 -7 4 -9 18 -5 32 4 18 2 23
-6 17 -9 -5 -10 -2 -6 10 4 10 7 24 7 32 0 8 5 14 11 14 5 0 7 -4 4 -10 -3 -5
-2 -10 3 -10 5 0 15 18 22 40 7 22 18 40 24 40 7 0 29 9 51 20 47 24 109 19
159 -13z m-311 -152 c-3 -9 -8 -14 -10 -11 -3 3 -2 9 2 15 9 16 15 13 8 -4z"/>
<path d="M5674 4924 c-3 -11 -3 -322 -1 -690 4 -712 5 -721 56 -867 58 -165
163 -288 303 -356 142 -69 160 -71 711 -71 l487 0 0 115 0 115 -73 0 c-43 0
-78 5 -85 12 -9 9 -12 219 -12 885 l0 874 -125 -3 -125 -3 0 -869 c0 -625 -3
-873 -11 -883 -14 -16 -371 -19 -498 -2 -185 23 -289 117 -348 316 -16 52 -18
131 -21 751 -2 531 -6 692 -15 692 -219 7 -238 5 -243 -16z"/>
<path d="M2200 3940 l0 -1000 125 0 125 0 0 459 0 459 32 6 c40 8 813 7 833
-1 13 -4 15 -70 15 -464 l0 -459 125 0 125 0 0 1000 0 1000 -125 0 -125 0 0
-415 0 -415 -437 2 -438 3 -3 413 -2 412 -125 0 -125 0 0 -1000z"/>
<path d="M3952 4213 c4 -671 5 -733 22 -793 87 -308 302 -491 605 -516 179
-15 390 58 458 158 32 48 43 36 43 -47 l0 -75 125 0 125 0 0 1000 0 1000 -125
0 -125 0 0 -682 c0 -399 -5 -712 -10 -752 -22 -149 -125 -279 -264 -333 -63
-25 -83 -28 -176 -27 -83 1 -117 6 -163 23 -119 46 -186 122 -234 264 l-27 82
-4 713 -3 712 -125 0 -125 0 3 -727z"/>
<path d="M428 4672 c-225 -235 -328 -459 -328 -717 0 -205 63 -381 201 -565
371 -495 1161 -898 2264 -1154 356 -83 678 -136 1110 -185 480 -54 720 -64
1395 -58 573 4 798 14 1080 47 264 31 434 53 505 65 44 8 103 17 130 20 191
22 947 193 973 221 4 3 -2 4 -13 1 -21 -6 -288 -66 -410 -92 -406 -86 -937
-152 -1455 -181 -360 -20 -1113 -15 -1445 10 -926 69 -1784 248 -2450 511
-246 97 -513 229 -685 339 -326 209 -565 458 -663 692 -53 127 -62 170 -62
329 0 177 15 237 99 401 l51 101 -55 61 c-55 60 -115 165 -127 223 -3 16 -9
29 -13 29 -4 0 -50 -44 -102 -98z"/>
</g>
</svg>
